<?xml version="1.0" standalone="no"?><!DOCTYPE svg PUBLIC "-//W3C//DTD SVG 1.1//EN" "http://www.w3.org/Graphics/SVG/1.1/DTD/svg11.dtd"><svg t="1572516042540" class="icon" viewBox="0 0 1024 1024" version="1.1" xmlns="http://www.w3.org/2000/svg" p-id="3182" xmlns:xlink="http://www.w3.org/1999/xlink" width="200" height="200"><defs><style type="text/css"></style></defs><path d="M268.02606186 955.64232617a117.44211993 117.44211993 0 0 1-117.28124029-117.2812403L150.74482157 228.30558079A117.44211993 117.44211993 0 0 1 268.02606186 111.02434049l488.02831609 0a117.44211993 117.44211993 0 0 1 117.2812403 117.2812403l0 609.97506528a117.44211993 117.44211993 0 0 1-117.2812403 117.28124029z m0-792.97562884a65.79976308 65.79976308 0 0 0-65.71932328 65.71932326l0 609.97506528a65.79976308 65.79976308 0 0 0 65.71932328 65.71932326l488.02831609 0a65.79976308 65.79976308 0 0 0 65.71932328-65.71932326L821.77370123 228.30558079a65.79976308 65.79976308 0 0 0-65.71932328-65.71932326z"  p-id="3183"></path><path d="M318.94446042 559.15451174a25.82117841 25.82117841 0 1 1 0-51.56191701l386.11107916 0a25.82117841 25.82117841 0 1 1 0 51.56191701zM318.94446042 681.10126091a25.82117841 25.82117841 0 1 1 0-51.24015778l263.44037172 0a25.82117841 25.82117841 0 1 1 0 51.64235683zM318.94446042 436.80556354a25.82117841 25.82117841 0 1 1 0-51.64235684l386.11107916 0a25.82117841 25.82117841 0 1 1 0 51.64235684z"  p-id="3184"></path></svg>