<?xml version="1.0" standalone="no"?><!DOCTYPE svg PUBLIC "-//W3C//DTD SVG 1.1//EN" "http://www.w3.org/Graphics/SVG/1.1/DTD/svg11.dtd"><svg t="1572515957906" class="icon" viewBox="0 0 1024 1024" version="1.1" xmlns="http://www.w3.org/2000/svg" p-id="2802" xmlns:xlink="http://www.w3.org/1999/xlink" width="200" height="200"><defs><style type="text/css"></style></defs><path d="M920.032 247.968h-95.968V56a48 48 0 0 0-48-48.032H103.936A48 48 0 0 0 55.936 56.032v768.032a48 48 0 0 0 48 48.064h144v95.936a48 48 0 0 0 48.064 48.064h624.032a48 48 0 0 0 48.032-48.064V296a48.16 48.16 0 0 0-48-48.032zM272.032 56h192.032v336.032l-85.28-42.624a24.064 24.064 0 0 0-21.472 0l-85.28 42.624v-336z m-144 767.936A24 24 0 0 1 104.064 800V80a24 24 0 0 1 24-23.968H224v369.12a24 24 0 0 0 34.752 21.472L368 392l109.248 54.656A24 24 0 0 0 512 425.152V56h239.968a24 24 0 0 1 23.968 23.968V800a24 24 0 0 1-24 23.968H128.064z m792 120.032a24 24 0 0 1-23.968 23.968h-576a24 24 0 0 1-23.936-23.968v-72h480a48 48 0 0 0 48.064-48.032V296h72a24 24 0 0 1 23.968 23.968V944h-0.128z"  p-id="2803"></path></svg>