<?xml version="1.0" standalone="no"?><!DOCTYPE svg PUBLIC "-//W3C//DTD SVG 1.1//EN" "http://www.w3.org/Graphics/SVG/1.1/DTD/svg11.dtd"><svg t="1572516028749" class="icon" viewBox="0 0 1024 1024" version="1.1" xmlns="http://www.w3.org/2000/svg" p-id="3055" xmlns:xlink="http://www.w3.org/1999/xlink" width="200" height="200"><defs><style type="text/css"></style></defs><path d="M512 51.2C258.56 51.2 51.2 258.56 51.2 512S258.56 972.8 512 972.8 972.8 765.44 972.8 512 765.44 51.2 512 51.2z m0 870.4c-225.28 0-409.6-184.32-409.6-409.6S286.72 102.4 512 102.4 921.6 286.72 921.6 512 737.28 921.6 512 921.6z" p-id="3056"></path><path d="M691.2 486.4c15.36 0 25.6-10.24 25.6-25.6s-10.24-25.6-25.6-25.6H573.44l128-128c5.12-5.12 7.68-10.24 7.68-17.92 0-15.36-10.24-25.6-25.6-25.6-7.68 0-12.8 2.56-17.92 7.68L512 424.96l-153.6-153.6c-5.12-5.12-10.24-7.68-17.92-7.68-15.36 0-25.6 10.24-25.6 25.6 0 7.68 2.56 12.8 7.68 17.92l130.56 130.56H332.8c-15.36 0-25.6 10.24-25.6 25.6s10.24 25.6 25.6 25.6h153.6v102.4H332.8c-15.36 0-25.6 10.24-25.6 25.6s10.24 25.6 25.6 25.6h153.6v181.76c0 15.36 10.24 25.6 25.6 25.6s25.6-10.24 25.6-25.6V642.56h153.6c15.36 0 25.6-10.24 25.6-25.6s-10.24-25.6-25.6-25.6H537.6v-102.4h153.6z" p-id="3057"></path></svg>