<?xml version="1.0" standalone="no"?><!DOCTYPE svg PUBLIC "-//W3C//DTD SVG 1.1//EN" "http://www.w3.org/Graphics/SVG/1.1/DTD/svg11.dtd"><svg t="1572516065931" class="icon" viewBox="0 0 1024 1024" version="1.1" xmlns="http://www.w3.org/2000/svg" p-id="3309" xmlns:xlink="http://www.w3.org/1999/xlink" width="200" height="200"><defs><style type="text/css"></style></defs><path d="M946.302255 1024a37.896409 37.896409 0 0 1-37.896408-37.896409 343.720428 343.720428 0 0 0-115.963012-255.800759 398.670221 398.670221 0 0 0-126.952969-78.445567 438.840414 438.840414 0 0 0-312.645373 0 398.670221 398.670221 0 0 0-126.95297 78.445567A346.373177 346.373177 0 0 0 109.928512 986.103591a37.896409 37.896409 0 0 1-73.519033 0 410.039144 410.039144 0 0 1 37.896409-170.912804 432.776989 432.776989 0 0 1 102.320304-139.07982 469.157541 469.157541 0 0 1 151.585635-92.846202l11.368923-4.168605 15.158563-5.684461-13.642707-8.716174a308.097804 308.097804 0 1 1 341.06768 0l-13.642707 8.716174 15.158563 5.684461 11.368923 4.168605a469.157541 469.157541 0 0 1 151.585635 92.846202 432.776989 432.776989 0 0 1 102.320304 139.07982 410.039144 410.039144 0 0 1 37.896409 170.912804 37.896409 37.896409 0 0 1-37.896409 37.896409zM510.872518 75.073923a236.852555 236.852555 0 0 0-166.365235 68.5925 234.957735 234.957735 0 0 0 166.365235 401.322969 236.852555 236.852555 0 0 0 166.365235-68.5925A234.957735 234.957735 0 0 0 510.872518 75.073923z" p-id="3310"></path></svg>